<svg width="580" height="155" viewBox="0 0 580 155" fill="none" xmlns="http://www.w3.org/2000/svg" role="img" aria-labelledby="logo-title logo-desc">
  <title id="logo-title">Caradine Realty and Development L.L.C.</title>
  <desc id="logo-desc">Caradine Realty and Development logo: ornate green calligraphic C with outer swash, gold-and-green sunburst motif above the wordmark, and a gold serif wordmark.</desc>
  <defs>
    <!-- Gold gradient for wordmark and teardrop -->
    <linearGradient id="gld" x1="0" y1="0" x2="0" y2="1">
      <stop offset="0%"   stop-color="#F7DC6A"/>
      <stop offset="42%"  stop-color="#D4A017"/>
      <stop offset="100%" stop-color="#8C6208"/>
    </linearGradient>
    <!-- Green gradient for the C body -->
    <linearGradient id="grn" x1="0.1" y1="0" x2="0.9" y2="1">
      <stop offset="0%"   stop-color="#2EC85E"/>
      <stop offset="100%" stop-color="#0B4A18"/>
    </linearGradient>
    <!-- Warm gold gradient for the teardrop -->
    <linearGradient id="drp" x1="0" y1="0" x2="0" y2="1">
      <stop offset="0%"   stop-color="#FAE84C"/>
      <stop offset="100%" stop-color="#C49A10"/>
    </linearGradient>
  </defs>

  <!-- ═══════════════════════════════════════════
       ORNATE CALLIGRAPHIC  C
       Outer decorative swash loop — thin open arc
       ═══════════════════════════════════════════ -->
  <path d="M 150,6
           C 128,-5 90,-5 60,10
           C 18,30 2,66 5,100
           C 8,132 30,150 62,150
           C 90,150 120,138 142,122
           C 158,110 165,96 161,83"
        stroke="#22994A" stroke-width="2.2" fill="none" stroke-linecap="round"/>

  <!-- Main thick C body — filled Bezier shape
       Outer arc: (136,18) → left side → (132,103)
       Inner arc returns: (124,112) → right side → (132,38)        -->
  <path d="M 136,18
           C 110,3  78,-3  50,10
           C 18,25   2,56   4,84
           C  6,112  24,136  52,143
           C  72,149  96,147 116,134
           C 128,126 136,114 133,101
           L 124,111
           C 116,122  99,130  81,128
           C  58,124  41,107  41,83
           C  41,60   58,39   80,31
           C  99,23  121,27  133,38 Z"
        fill="url(#grn)" stroke="#093D14" stroke-width="0.8"/>

  <!-- Top terminal flourish — small curling stroke from top of C -->
  <path d="M 136,18 C 143,8 156,3 165,10"
        stroke="#1A8035" stroke-width="2.8" fill="none" stroke-linecap="round"/>

  <!-- Inner oval detail inside the C bowl — gives the calligraphic depth -->
  <ellipse cx="72" cy="72" rx="27" ry="37"
           transform="rotate(-8,72,72)"
           stroke="#65D47C" stroke-width="1.5" fill="none" opacity="0.5"/>

  <!-- ═══════════════════════════════════════════
       SUNBURST  (rays diverge from center at 372,27)
       Positioned above the D and I in CARADINE
       ═══════════════════════════════════════════ -->
  <g stroke="#1A8035" stroke-linecap="round">
    <!-- center top -->
    <line x1="372" y1="27" x2="372" y2="1"   stroke-width="2.8"/>
    <!-- left fan -->
    <line x1="372" y1="27" x2="353" y2="3"   stroke-width="2.2"/>
    <line x1="372" y1="27" x2="336" y2="8"   stroke-width="2.0"/>
    <line x1="372" y1="27" x2="323" y2="17"  stroke-width="1.8"/>
    <line x1="372" y1="27" x2="315" y2="29"  stroke-width="1.6"/>
    <line x1="372" y1="27" x2="316" y2="43"  stroke-width="1.4"/>
    <line x1="372" y1="27" x2="325" y2="56"  stroke-width="1.3"/>
    <line x1="372" y1="27" x2="338" y2="64"  stroke-width="1.2"/>
    <!-- right fan -->
    <line x1="372" y1="27" x2="391" y2="3"   stroke-width="2.2"/>
    <line x1="372" y1="27" x2="408" y2="8"   stroke-width="2.0"/>
    <line x1="372" y1="27" x2="421" y2="17"  stroke-width="1.8"/>
    <line x1="372" y1="27" x2="429" y2="29"  stroke-width="1.6"/>
    <line x1="372" y1="27" x2="428" y2="43"  stroke-width="1.4"/>
    <line x1="372" y1="27" x2="419" y2="56"  stroke-width="1.3"/>
    <line x1="372" y1="27" x2="406" y2="64"  stroke-width="1.2"/>
  </g>

  <!-- Gold teardrop / droplet at sunburst focal point
       Top at y=23, bottom tip at y=73 — hangs into the letter space -->
  <path d="M 372,23 C 361,38 359,58 372,73 C 385,58 383,38 372,23 Z"
        fill="url(#drp)" stroke="#9E6E0C" stroke-width="1.2"/>

  <!-- ═══════════════════════════════════════════
       WORDMARK  — CARADINE
       ═══════════════════════════════════════════ -->
  <text x="173" y="108"
        font-family="'Palatino Linotype','Book Antiqua',Palatino,Georgia,'Times New Roman',serif"
        font-size="66" font-weight="bold" letter-spacing="2"
        fill="url(#gld)">CARADINE</text>

  <!-- Subtitle — centered under CARADINE (mid-x ≈ 343) -->
  <text x="343" y="138" text-anchor="middle"
        font-family="'Palatino Linotype','Book Antiqua',Palatino,Georgia,'Times New Roman',serif"
        font-size="21" font-style="italic"
        fill="#1C1C1C">Realty &amp; Development L.L.C.</text>
</svg>