<svg width="610" height="170" viewBox="0 -8 610 178" fill="none" xmlns="http://www.w3.org/2000/svg" role="img" aria-labelledby="logo-title logo-desc">
  <title id="logo-title">Caradine Realty and Development L.L.C.</title>
  <desc id="logo-desc">Caradine Realty and Development logo: ornate green calligraphic C with large outer swash loop, gold-and-green sunburst above the wordmark, and a gold serif wordmark.</desc>
  <defs>
    <linearGradient id="gld" x1="0" y1="0" x2="0" y2="1">
      <stop offset="0%"   stop-color="#F7DC6A"/>
      <stop offset="42%"  stop-color="#D4A017"/>
      <stop offset="100%" stop-color="#8C6208"/>
    </linearGradient>
    <linearGradient id="grn" x1="0.2" y1="0" x2="0.8" y2="1">
  <stop offset="0%"   stop-color="#D4A820"/>
  <stop offset="30%"  stop-color="#3AAB28"/>
  <stop offset="100%" stop-color="#0B4A18"/>
    </linearGradient>
    <linearGradient id="drp" x1="0" y1="0" x2="0" y2="1">
      <stop offset="0%"   stop-color="#FAE84C"/>
      <stop offset="100%" stop-color="#C49A10"/>
    </linearGradient>
  </defs>

    <!-- OUTER SWASH: broader oval loop with longer return stroke -->
    <path d="M 170,32
         C 148,8 108,-2 66,12
         C 25,26 8,62 14,98
         C 20,136 50,162 94,162
         C 132,162 164,146 178,122
         C 191,100 190,72 171,54"
      stroke="#1B7A2C" stroke-width="2.6" fill="none" stroke-linecap="round"/>

    <!-- MAIN C BODY: heavier downstroke and sharper terminal contrast -->
    <path d="M 160,30
         C 132,12 95,8 68,20
         C 32,36 16,66 18,94
         C 20,124 42,146 72,154
         C 98,160 126,154 144,136
         C 156,124 162,110 160,96
         L 148,108
         C 140,118 126,126 108,128
         C 84,130 64,114 62,92
         C 60,70 74,50 96,42
         C 118,34 142,38 156,52
         C 162,58 165,66 165,74
         C 165,83 161,89 154,93
         L 166,91
         C 176,86 182,77 182,66
         C 182,54 177,44 168,36 Z"
      fill="url(#grn)" stroke="#093D14" stroke-width="0.9"/>

    <!-- TOP TERMINAL FLOURISH: pen-like crown stroke -->
    <path d="M 160,30 C 168,18 182,15 189,24"
      stroke="#1C8030" stroke-width="2.6" fill="none" stroke-linecap="round"/>

    <!-- INNER HAIRLINES: calligraphic counter strokes -->
    <path d="M 124,66 C 111,62 100,67 89,78 C 80,88 77,101 80,113"
      stroke="#78D987" stroke-width="1.8" fill="none" stroke-linecap="round" opacity="0.75"/>
    <path d="M 110,64 C 124,66 136,73 147,84"
      stroke="#78D987" stroke-width="1.6" fill="none" stroke-linecap="round" opacity="0.62"/>

  <!-- SUNBURST: rays from (358,26), above the D/I in ARADINE.
   ARADINE at x=192: A≈48 R≈46 A≈48 = 142 → D starts at 334,
   D≈48 → I at 382. Midpoint = 358. -->
  <g stroke="#1A8035" stroke-linecap="round">
    <line x1="358" y1="26" x2="358" y2="0"  stroke-width="2.8"/>
    <line x1="358" y1="26" x2="339" y2="2"  stroke-width="2.2"/>
    <line x1="358" y1="26" x2="322" y2="8"  stroke-width="2.0"/>
    <line x1="358" y1="26" x2="309" y2="17" stroke-width="1.8"/>
    <line x1="358" y1="26" x2="301" y2="29" stroke-width="1.6"/>
    <line x1="358" y1="26" x2="302" y2="43" stroke-width="1.4"/>
    <line x1="358" y1="26" x2="311" y2="56" stroke-width="1.3"/>
    <line x1="358" y1="26" x2="324" y2="64" stroke-width="1.2"/>
    <line x1="358" y1="26" x2="377" y2="2"  stroke-width="2.2"/>
    <line x1="358" y1="26" x2="394" y2="8"  stroke-width="2.0"/>
    <line x1="358" y1="26" x2="407" y2="17" stroke-width="1.8"/>
    <line x1="358" y1="26" x2="415" y2="29" stroke-width="1.6"/>
    <line x1="358" y1="26" x2="414" y2="43" stroke-width="1.4"/>
    <line x1="358" y1="26" x2="405" y2="56" stroke-width="1.3"/>
    <line x1="358" y1="26" x2="392" y2="64" stroke-width="1.2"/>
  </g>

  <!-- TEARDROP: gold droplet at sunburst focal point -->
  <path d="M 358,22 C 347,37 345,57 358,72 C 371,57 369,37 358,22 Z"
    fill="url(#drp)" stroke="#9E6E0C" stroke-width="1.2"/>

  <!-- WORDMARK: stylized C + ARADINE reads as CARADINE -->
  <text x="192" y="108"
    font-family="'Palatino Linotype','Book Antiqua',Palatino,Georgia,'Times New Roman',serif"
    font-size="66" font-weight="bold" letter-spacing="2"
    fill="url(#gld)">ARADINE</text>

  <!-- SUBTITLE: centered under full composition (mid ≈ 258) -->
  <text x="258" y="138" text-anchor="middle"
    font-family="'Palatino Linotype','Book Antiqua',Palatino,Georgia,'Times New Roman',serif"
    font-size="21" font-style="italic"
    fill="#1C1C1C">Realty &amp; Development L.L.C.</text>
</svg>